<?xml version="1.0" encoding="utf-8"?>
<!-- Generator: Adobe Illustrator 25.2.3, SVG Export Plug-In . SVG Version: 6.00 Build 0)  -->
<svg version="1.1" id="Layer_1" xmlns="http://www.w3.org/2000/svg" xmlns:xlink="http://www.w3.org/1999/xlink" x="0px" y="0px"
	 viewBox="0 0 234.4 85.8" style="enable-background:new 0 0 234.4 85.8;" xml:space="preserve">
<style type="text/css">
	.st0{fill:#231F20;}
</style>
<path class="st0" d="M16.1,25.9c10.2,3.8,21.8,2.6,32.4,1.5c0.2,0,0.4-0.1,0.6-0.1c6.7,2.6,13.4,4.8,20.3,6.7
	c-6.1,0.5-12,1.5-18,3.7c-7.4,2.6-20.8,6.7-17.6,17.2c3.5,11.5,17.4,8.3,25.7,5.5c5.6-1.9,11.3-3.6,16.5-6.5
	c5.8-3.3,10.6-8,15.6-12.3c0.5-0.4,0.8-0.9,0.9-1.5c0.7-0.1,1.4-0.1,2.1-0.2c10,2,20.4,4.1,30.8,4.9c-0.2,0.1-0.3,0.1-0.5,0.2
	c-5.9,2.2-11.7,3.7-16.9,7.4c-7.4,5.2-15.7,14.2-10.5,24.1c2.2,4.1,7.4,5.7,11.7,5.7c6-0.1,10.6-3.6,15-7.2
	c9.4-7.5,16.9-19.1,22.1-29.9c0.2-0.3,0.2-0.7,0.3-1c14.5-2.4,28.7-8.6,42.5-13.7c-0.7,0.8-1.4,1.6-2,2.4c-2.6,3.6-4.3,7.8-5.8,12
	c-1.3,3.8-3.3,8.1-2.3,12.2c0.3,1.5,0.9,2.8,2,4c0.7,0.8,2.1,1.2,2.7,2.1c0.5,0.9,1.6,1.2,2.6,1.2c8.8-0.4,14.8-8,18-15.5
	c1.7-4.1,3.6-9,4-13.5c0.4-4-1.2-7.6-3.1-11.1c9.1-3.9,17.9-8.7,25.3-15.5c2.7-2.5-0.6-7.1-3.3-4.7c-11,10-24.7,15.4-38.5,20.4
	c-4.7,1.7-9.5,3.6-14.4,5.4c-6.1-9.9-13.4-17.3-23.8-22.8c-6.7-3.5-19.6-6.5-23.8,2.4c-4.2,8.8,8.4,14.7,14.4,18
	c7.2,3.9,14.1,5.9,21.6,6.6c-6.8,2.2-13.6,4.1-20.5,4.8c-8.9,1-18,0.3-27-1.1c-0.3-5.5-3.4-10.3-6-15c-2.9-5.1-5.5-9-10.4-12.5
	c-6.1-4.3-17.4-9.9-23.2-1.6c-5,7.4,5.2,15.2,9.8,19.5c1.9,1.7,3.7,3.4,5.6,5c-14-2.9-27.7-6.6-41-11.8c-0.3-0.4-0.6-0.8-1.2-1
	c-5.2-2.4-9.5-7.5-14.3-10.8c-3.5-2.3-7.1-5-11.2-6C17.8,2.3,5.7,2.2,3.1,8.8C-0.2,16.9,9.9,23.6,16.1,25.9z M36.2,18.1
	c-3.4-0.7-6.6-1.5-10.1-2.6c-5.4-1.7-11.2-1.7-15.9-4.9c0-0.3,0-0.5,0.1-0.8c1-0.2,2.1-0.4,3.1-0.7c7.7-1.2,12.9,1.7,19.1,6
	C33.8,16.1,35,17.1,36.2,18.1z M82.7,10.8c0.1,0,0.1-0.1,0.2-0.1c1.8,6.3,7,11.9,11.1,16.7c1.1,1.2,2.1,2.4,3.1,3.5
	c-1-0.7-2-1.5-3.1-2.4c-4.3-3.5-9.5-7.6-12.6-12.2C80.2,14.1,80.2,12.1,82.7,10.8z M105.3,27.7c0.9,1.6,1.9,3.3,2.6,5
	c-3.5-2.4-6.2-5.2-9.3-8.7c-2.9-3.4-7.5-8.1-9.6-12.7c0.7,0.3,1.4,0.6,1.9,0.9c2.9,1.5,6,3.7,8.3,6C102,20.9,103.5,24.5,105.3,27.7z
	 M136.5,18.1c-0.6-0.4-1.1-0.7-1.5-1c2.3,0.6,4.5,1.5,6.9,2.2c2.9,0.9,5.8,1.3,8.6,2.7c2.9,1.5,5.8,3.2,8.6,4.9
	c0.9,0.5,1.6,1,2.3,1.6c-4-0.4-7.8-1.2-11.6-2.9c-3-1.3-6-3-8.9-4.7C139.5,20,138,19.1,136.5,18.1z M160.2,20.9
	c-1.9-1.1-3.8-2.1-5.7-3.2c-3.5-1.9-6.8-2.7-10.6-3.8c-3.3-1-6.2-2.2-9.6-2.7c0.3-1.6,1.4-2.1,3.6-1.7c1.1,0.1,2.2,0.2,3.3,0.3
	c2.1,0.4,4.1,1.2,6,2.2c3.2,1.6,6.2,3.5,9,5.6C157.6,18.5,159,19.7,160.2,20.9z M189.9,57.6c3.9-7.7,9.4-15.5,12.1-23.7
	c0.2,4.1-1.1,8.2-3,12.5C197.2,50.8,194.3,55.6,189.9,57.6z M197,31.1c-1.5,4.4-4.3,8.8-6.3,12.7c-1.8,3.5-3.7,6.9-5.5,10.5
	c-0.2-1-0.2-2.2,0.3-3.8c0.9-3.1,2-6.1,3.4-9.1C190.8,37.1,193.7,34,197,31.1z M102.7,73.8c0.1,0,0.3,0,0.4-0.1
	c12.2-3.6,22.5-11.7,32-20.2c-2.5,3.9-5.2,7.8-8,11.1C123.4,68.9,107.1,83,102.7,73.8z M132.4,48.3c-9.1,8.2-18.9,16.1-30.4,19.7
	c1.4-7.5,11.6-13.1,17.9-15.3C124.1,51.2,128.2,49.7,132.4,48.3z M42,56.6c8-5.5,18.1-7.7,27.2-10.8c4.6-1.6,9-3,13.5-4
	c-4.9,4.1-10,7.8-16.2,10.2c-4.2,1.6-8.6,3.1-12.9,4.4C50.8,57.1,45.4,58.1,42,56.6z M69.9,39.4c-0.9,0.3-1.9,0.6-2.8,1
	c-9.5,3.2-19.6,5.6-28,11.2c0.6-4.2,9.3-6.7,12.4-7.9c4.6-1.8,9.3-3.2,14.2-3.9C67.1,39.7,68.5,39.5,69.9,39.4z M15.2,19.2
	c-0.3-0.2-0.9-0.5-1.6-0.9c2.8,0.8,5.8,1.4,8.8,2.1c2.2,0.6,4.2,1.4,6.3,2.1c-1.5-0.1-3-0.3-4.4-0.5C21.1,21.6,18,20.7,15.2,19.2z"
	/>
</svg>
