<?xml version="1.0" encoding="utf-8"?>
<!-- Generator: Adobe Illustrator 25.2.3, SVG Export Plug-In . SVG Version: 6.00 Build 0)  -->
<svg version="1.1" id="Layer_1" xmlns="http://www.w3.org/2000/svg" xmlns:xlink="http://www.w3.org/1999/xlink" x="0px" y="0px"
	 viewBox="0 0 750 435" style="enable-background:new 0 0 750 435;" xml:space="preserve">
<style type="text/css">
	.st0{opacity:0.8;fill:#FFFFFF;enable-background:new    ;}
	.st1{opacity:0.8;fill:#FF5F56;enable-background:new    ;}
	.st2{opacity:0.8;fill:#FFBD2E;enable-background:new    ;}
	.st3{opacity:0.8;fill:#27C93F;enable-background:new    ;}
	.st4{opacity:0.9;fill:#FFFFFF;stroke:#F4BBBB;enable-background:new    ;}
	.st5{opacity:0.8;enable-background:new    ;}
	.st6{opacity:0.8;fill:#F9F9F9;enable-background:new    ;}
	.st7{opacity:0.8;fill:none;stroke:#F4BBBB;stroke-width:3;enable-background:new    ;}
</style>
<g>
	<path class="st0" d="M15,1.5h720c7.5,0,13.5,6,13.5,13.5v405c0,7.5-6,13.5-13.5,13.5H15c-7.5,0-13.5-6-13.5-13.5V15
		C1.5,7.5,7.5,1.5,15,1.5z"/>
	<path class="st1" d="M28,19c2.2,0,4-1.8,4-4s-1.8-4-4-4s-4,1.8-4,4S25.8,19,28,19z"/>
	<path class="st2" d="M44,19c2.2,0,4-1.8,4-4s-1.8-4-4-4s-4,1.8-4,4S41.8,19,44,19z"/>
	<path class="st3" d="M60,19c2.2,0,4-1.8,4-4s-1.8-4-4-4s-4,1.8-4,4S57.8,19,60,19z"/>
	<path class="st4" d="M719.3,8.5H92.7c-5.4,0-9.7,2-9.7,4.5v4c0,2.5,4.4,4.5,9.7,4.5h626.6c5.4,0,9.7-2,9.7-4.5v-4
		C729,10.5,724.6,8.5,719.3,8.5z"/>
	<path class="st5" d="M373.1,18v-7.2h0.8v4.3L376,13h1.1l-2.2,2.2v0.1l2.5,2.7h-1l-2.4-2.6V18H373.1z M380.4,18.1
		c-0.4,0-0.7-0.1-1-0.2c-0.3-0.1-0.5-0.3-0.6-0.5c-0.1-0.2-0.2-0.5-0.2-0.8c0-0.5,0.2-0.9,0.6-1.2c0.4-0.3,0.9-0.4,1.5-0.4h1.4v-0.1
		c0-0.9-0.4-1.3-1.2-1.3c-0.3,0-0.6,0.1-0.8,0.2c-0.2,0.1-0.3,0.4-0.4,0.7h-0.9c0-0.3,0.1-0.6,0.3-0.9c0.2-0.2,0.4-0.4,0.7-0.6
		c0.3-0.1,0.6-0.2,1-0.2c0.7,0,1.2,0.2,1.5,0.6c0.3,0.4,0.5,0.9,0.5,1.5V18h-0.7l-0.1-0.8h-0.1c-0.1,0.2-0.3,0.5-0.6,0.6
		C381.2,18,380.9,18.1,380.4,18.1z M380.6,17.4c0.3,0,0.6-0.1,0.8-0.2c0.2-0.2,0.4-0.4,0.5-0.6c0.1-0.3,0.2-0.5,0.2-0.8h-1.3
		c-0.5,0-0.8,0.1-1,0.2c-0.2,0.2-0.3,0.4-0.3,0.6c0,0.3,0.1,0.5,0.3,0.6S380.2,17.4,380.6,17.4z M387.2,18c-0.5,0-0.8-0.1-1.1-0.3
		s-0.4-0.6-0.4-1.2v-2.7h-1.3V13h0.8c0.3,0,0.5-0.2,0.6-0.5l0.1-0.8h0.6V13h2v0.7h-2v2.7c0,0.3,0.1,0.5,0.2,0.6
		c0.1,0.1,0.4,0.2,0.7,0.2h1.1V18H387.2z M392.5,18c-0.2,0-0.4-0.1-0.5-0.2c-0.1-0.1-0.2-0.3-0.2-0.5c0-0.2,0.1-0.4,0.2-0.5
		c0.1-0.1,0.3-0.2,0.5-0.2c0.2,0,0.4,0.1,0.5,0.2c0.1,0.1,0.2,0.3,0.2,0.5c0,0.2-0.1,0.4-0.2,0.5C392.9,18,392.7,18,392.5,18z
		 M398.2,18.1c-0.4,0-0.8-0.1-1.1-0.3c-0.3-0.2-0.6-0.5-0.8-0.9c-0.2-0.4-0.3-0.9-0.3-1.4c0-0.6,0.1-1,0.3-1.4
		c0.2-0.4,0.4-0.7,0.8-0.9c0.3-0.2,0.7-0.3,1.1-0.3c0.4,0,0.7,0.1,1,0.2c0.3,0.2,0.5,0.4,0.6,0.6v-2.9h0.8V18h-0.7l-0.1-0.8h-0.1
		c-0.1,0.3-0.3,0.5-0.6,0.6C398.9,18,398.6,18.1,398.2,18.1z M398.3,17.3c0.4,0,0.8-0.1,1-0.4c0.3-0.3,0.4-0.8,0.4-1.4
		c0-0.6-0.1-1.1-0.4-1.4c-0.3-0.3-0.6-0.4-1-0.4c-0.4,0-0.8,0.1-1,0.4c-0.3,0.3-0.4,0.7-0.4,1.4c0,0.6,0.1,1.1,0.4,1.4
		C397.6,17.2,397.9,17.3,398.3,17.3z M404.3,18.1c-0.5,0-0.9-0.1-1.2-0.3c-0.4-0.2-0.6-0.5-0.8-0.9c-0.2-0.4-0.3-0.8-0.3-1.4
		s0.1-1,0.3-1.4c0.2-0.4,0.5-0.7,0.9-0.9c0.4-0.2,0.8-0.3,1.3-0.3c0.5,0,0.9,0.1,1.2,0.3c0.3,0.2,0.6,0.5,0.8,0.9s0.3,0.7,0.3,1.1
		c0,0.1,0,0.1,0,0.2c0,0.1,0,0.2,0,0.2h-3.9c0,0.4,0.1,0.7,0.2,0.9c0.2,0.2,0.3,0.4,0.6,0.5c0.2,0.1,0.5,0.2,0.7,0.2
		c0.4,0,0.7-0.1,0.9-0.2c0.2-0.2,0.4-0.4,0.5-0.6h0.8c-0.1,0.5-0.4,0.9-0.7,1.2C405.4,18,404.9,18.1,404.3,18.1z M404.3,13.7
		c-0.4,0-0.7,0.1-1,0.4c-0.3,0.2-0.5,0.6-0.5,1h3c0-0.4-0.2-0.7-0.5-1C405,13.8,404.7,13.7,404.3,13.7z M409.6,18l-2.2-5h1l1.7,4
		l1.7-4h1l-2.2,5H409.6z"/>
	<path class="st6" d="M750,51H0v384h750V51z"/>
	<path class="st7" d="M15,1.5h720c7.5,0,13.5,6,13.5,13.5v405c0,7.5-6,13.5-13.5,13.5H15c-7.5,0-13.5-6-13.5-13.5V15
		C1.5,7.5,7.5,1.5,15,1.5z"/>
</g>
</svg>
