<svg width="750" height="435" viewBox="0 0 750 435" fill="none" xmlns="http://www.w3.org/2000/svg">
<g opacity="0.8">
<path opacity="0.8" d="M15 1.5H735C742.456 1.5 748.5 7.54415 748.5 15V420C748.5 427.456 742.456 433.5 735 433.5H15C7.54414 433.5 1.5 427.456 1.5 420V15C1.5 7.54416 7.54416 1.5 15 1.5Z" fill="white"/>
<path opacity="0.8" d="M28 19C30.2091 19 32 17.2091 32 15C32 12.7909 30.2091 11 28 11C25.7909 11 24 12.7909 24 15C24 17.2091 25.7909 19 28 19Z" fill="#FF5F56"/>
<path opacity="0.8" d="M44 19C46.2091 19 48 17.2091 48 15C48 12.7909 46.2091 11 44 11C41.7909 11 40 12.7909 40 15C40 17.2091 41.7909 19 44 19Z" fill="#FFBD2E"/>
<path opacity="0.8" d="M60 19C62.2091 19 64 17.2091 64 15C64 12.7909 62.2091 11 60 11C57.7909 11 56 12.7909 56 15C56 17.2091 57.7909 19 60 19Z" fill="#27C93F"/>
<path opacity="0.9" d="M543 8.5H253C250.515 8.5 248.5 10.5147 248.5 13V17C248.5 19.4853 250.515 21.5 253 21.5H543C545.485 21.5 547.5 19.4853 547.5 17V13C547.5 10.5147 545.485 8.5 543 8.5Z" fill="white" stroke="#F4BBBB"/>
<path opacity="0.8" d="M373.11 18V10.8H373.95V15.14L376.02 13.04H377.09L374.88 15.25V15.31L377.36 18H376.32L373.95 15.42V18H373.11ZM380.426 18.12C380.033 18.12 379.706 18.05 379.446 17.91C379.186 17.77 378.993 17.5867 378.866 17.36C378.739 17.1267 378.676 16.8733 378.676 16.6C378.676 16.0933 378.859 15.71 379.226 15.45C379.599 15.1833 380.096 15.05 380.716 15.05H382.076V14.95C382.076 14.0833 381.679 13.65 380.886 13.65C380.566 13.65 380.296 13.72 380.076 13.86C379.863 14 379.726 14.22 379.666 14.52H378.806C378.839 14.1867 378.949 13.9 379.136 13.66C379.329 13.42 379.576 13.2367 379.876 13.11C380.176 12.9833 380.513 12.92 380.886 12.92C381.593 12.92 382.106 13.1067 382.426 13.48C382.753 13.8467 382.916 14.3367 382.916 14.95V18H382.196L382.126 17.23H382.056C381.909 17.47 381.713 17.68 381.466 17.86C381.226 18.0333 380.879 18.12 380.426 18.12ZM380.576 17.38C380.896 17.38 381.166 17.3033 381.386 17.15C381.613 16.9967 381.783 16.7933 381.896 16.54C382.016 16.2867 382.076 16.01 382.076 15.71H380.786C380.333 15.71 380.013 15.7867 379.826 15.94C379.646 16.0933 379.556 16.2967 379.556 16.55C379.556 16.81 379.643 17.0133 379.816 17.16C379.989 17.3067 380.243 17.38 380.576 17.38ZM387.212 18C386.759 18 386.402 17.89 386.142 17.67C385.882 17.45 385.752 17.0533 385.752 16.48V13.76H384.492V13.04H385.242C385.582 13.04 385.779 12.8733 385.832 12.54L385.972 11.77H386.592V13.04H388.572V13.76H386.592V16.48C386.592 16.76 386.656 16.9567 386.782 17.07C386.916 17.1833 387.142 17.24 387.462 17.24H388.572V18H387.212ZM392.538 18.02C392.332 18.02 392.155 17.95 392.008 17.81C391.862 17.67 391.788 17.4967 391.788 17.29C391.788 17.09 391.862 16.92 392.008 16.78C392.155 16.64 392.332 16.57 392.538 16.57C392.745 16.57 392.922 16.64 393.068 16.78C393.215 16.92 393.288 17.09 393.288 17.29C393.288 17.4967 393.215 17.67 393.068 17.81C392.922 17.95 392.745 18.02 392.538 18.02ZM398.214 18.12C397.794 18.12 397.418 18.02 397.084 17.82C396.758 17.62 396.501 17.3267 396.314 16.94C396.128 16.5467 396.034 16.07 396.034 15.51C396.034 14.9567 396.128 14.4867 396.314 14.1C396.501 13.7133 396.758 13.42 397.084 13.22C397.418 13.02 397.794 12.92 398.214 12.92C398.608 12.92 398.931 12.9967 399.184 13.15C399.444 13.3033 399.638 13.5033 399.764 13.75V10.8H400.604V18H399.914L399.824 17.23H399.764C399.631 17.5033 399.434 17.72 399.174 17.88C398.914 18.04 398.594 18.12 398.214 18.12ZM398.324 17.32C398.744 17.32 399.091 17.1733 399.364 16.88C399.638 16.58 399.774 16.1267 399.774 15.52C399.774 14.9133 399.638 14.4633 399.364 14.17C399.091 13.87 398.744 13.72 398.324 13.72C397.904 13.72 397.558 13.87 397.284 14.17C397.018 14.4633 396.884 14.9133 396.884 15.52C396.884 16.1267 397.018 16.58 397.284 16.88C397.558 17.1733 397.904 17.32 398.324 17.32ZM404.28 18.12C403.814 18.12 403.4 18.0133 403.04 17.8C402.687 17.58 402.407 17.2767 402.2 16.89C401.994 16.4967 401.89 16.04 401.89 15.52C401.89 15 401.99 14.5467 402.19 14.16C402.397 13.7667 402.68 13.4633 403.04 13.25C403.4 13.03 403.82 12.92 404.3 12.92C404.78 12.92 405.19 13.03 405.53 13.25C405.87 13.4633 406.13 13.7467 406.31 14.1C406.49 14.4533 406.58 14.8333 406.58 15.24C406.58 15.3133 406.577 15.3867 406.57 15.46C406.57 15.5333 406.57 15.6167 406.57 15.71H402.72C402.74 16.0767 402.824 16.3833 402.97 16.63C403.124 16.87 403.314 17.05 403.54 17.17C403.774 17.29 404.02 17.35 404.28 17.35C404.647 17.35 404.934 17.2733 405.14 17.12C405.347 16.9667 405.504 16.7533 405.61 16.48H406.44C406.327 16.94 406.09 17.33 405.73 17.65C405.37 17.9633 404.887 18.12 404.28 18.12ZM404.28 13.67C403.894 13.67 403.554 13.7867 403.26 14.02C402.974 14.2533 402.797 14.58 402.73 15H405.75C405.724 14.5867 405.574 14.2633 405.3 14.03C405.034 13.79 404.694 13.67 404.28 13.67ZM409.587 18L407.407 13.04H408.367L410.077 17.08L411.797 13.04H412.747L410.557 18H409.587Z" fill="black"/>
<path opacity="0.8" d="M750 51H0V435H750V51Z" fill="#F9F9F9"/>
<path opacity="0.8" d="M15 1.5H735C742.456 1.5 748.5 7.54415 748.5 15V420C748.5 427.456 742.456 433.5 735 433.5H15C7.54414 433.5 1.5 427.456 1.5 420V15C1.5 7.54416 7.54416 1.5 15 1.5Z" stroke="#F4BBBB" stroke-width="3"/>
</g>
</svg>
