<?xml version="1.0" encoding="utf-8"?>
<!-- Generator: Adobe Illustrator 25.2.3, SVG Export Plug-In . SVG Version: 6.00 Build 0)  -->
<svg version="1.1" id="Layer_1" xmlns="http://www.w3.org/2000/svg" xmlns:xlink="http://www.w3.org/1999/xlink" x="0px" y="0px"
	 viewBox="0 0 497 611" style="enable-background:new 0 0 497 611;" xml:space="preserve">
<style type="text/css">
	.st0{fill:#FAE3EB;}
	.st1{fill:#FBE0EA;}
	.st2{fill:#F9CEE0;}
	.st3{fill:#F7CADF;}
	.st4{fill:#F8CBDD;}
	.st5{fill:#F6C1D8;}
	.st6{fill:#F9D9E6;}
	.st7{fill:#F3B9D5;}
	.st8{fill:#F6C0D6;}
	.st9{fill:#EC93AB;}
	.st10{fill:#F1A8C4;}
	.st11{fill:#EFA1C0;}
	.st12{fill:#FADAE8;}
	.st13{fill:#F9D8E6;}
	.st14{fill:#F9D5E6;}
	.st15{fill:#F4BFD9;}
	.st16{fill:#F2B1CE;}
	.st17{fill:#F7CDE0;}
	.st18{fill:#ED95B7;}
	.st19{fill:#EBB862;}
	.st20{fill:#F4D620;}
	.st21{fill:#DD6E12;}
	.st22{fill:#F6DF29;}
	.st23{fill:#F0C432;}
	.st24{fill:#F1D324;}
	.st25{fill:#F3D74A;}
	.st26{fill:#F0BD27;}
	.st27{fill:#E18B3C;}
	.st28{fill:#E7AD26;}
	.st29{fill:#EEA454;}
	.st30{fill:#F0B917;}
	.st31{fill:#F0C91E;}
	.st32{fill:#F5D907;}
	.st33{fill:#F5D90C;}
	.st34{fill:#F2C80B;}
	.st35{fill:#F4DB0B;}
	.st36{fill:#E69012;}
	.st37{fill:#D3382A;}
	.st38{fill:#F6E124;}
	.st39{fill:#F6E00A;}
	.st40{fill:#F0CE07;}
	.st41{fill:#E88C0B;}
	.st42{fill:#E2702F;}
	.st43{fill:#D75518;}
	.st44{fill:#E4831F;}
	.st45{fill:#EEAE10;}
	.st46{fill:#D22F29;}
	.st47{fill:#F2CA21;}
	.st48{fill:#DC5F26;}
	.st49{fill:#F0BB22;}
</style>
<g>
	<g>
		<path class="st0" d="M226.6,283.9c-1.9,12-8.3,20.4-19.5,25.1c-15.3,10.5-31.2,15.9-49.7,7.8c-3-1.3-9.2-1.1-10.4,5.2
			c-8.4,7.4-17.7,8.3-27.6,3.5c-19.2-15.3-34-33.1-35.1-59.1c4.5-13.7,4.7-28.3,7.2-42.4c3-17.2,12.9-24.4,28.8-18.3
			c9.2,3.5,19-5.4,27.5,3.4c2.5,2.6,4.9-2.4,5.6-5.6c1.7-8.3,2.2-16.9,2.1-25.4c0.2-2.9,0.8-5.5,3.1-7.6c2.4-1.1,5.5-2.2,7.3-0.7
			c5.2,4.5,6.1,4.3,3.8-2.4c-0.9-2.6,0.3-5,2.6-6.6c11.7-3.3,13.1,4.4,14,13c2.3,19.5,2.5,19.6,8.7,29.2c7.9-4.3-4.9-20.8,10.9-19.5
			c16.1,1.3,21.7,12.6,22.2,27.3c5,28.7,6.6,56.8-12.1,81.7C219.3,290,220.1,283.3,226.6,283.9z"/>
		<path class="st1" d="M223,211.2c-0.2-1.9-0.8-3.9-0.6-5.7c2.1-14-9.1-15.1-17.8-18.6c-0.8,6.3-2.1,12.4-2.2,18.8
			c-0.1,2.1,2.4,4.4-0.3,8.1c-14.8-8.4-25.1-19.4-21.1-37.6c2.1-9.5-0.1-13.5-9.2-14.6c-0.4-0.8-0.8-1.5-1.3-2.4
			c-1.5-8.4,0.2-17.7-7-24.6c-3.5-5.4-3-11.3-1.6-16.8c1.6-6.7-1.4-16.3,5.4-19.3c7.9-3.5,13.9,4.2,19.5,9.5c1.1,1.4,2.1,3,3,4.6
			c1.7,7.8,3.7,15.4,10.9,20.1c10.7,8.6,15.1,20.7,18.1,33.5c1,4.1-0.5,9.5,5.5,11.3c2.5,10,7.3,19.4,6.8,30.1
			C229,210.1,226.3,211.3,223,211.2z"/>
		<path class="st2" d="M86.3,264.8c4.2,23.9,18.5,42.3,32.9,60.7l-0.1,0c-8-2.6-14.3-7.4-18.7-14.6c-26.2-19-27.1-48.6-30.9-76.4
			c-1.4-10.5-5.6-21.7,0.3-32.4c3,3.8,6.8,3.2,10.7,1.8C88.2,223.6,83.2,244.5,86.3,264.8z"/>
		<path class="st3" d="M79.3,94.3c3.7-15.5,7.5-30.9,11.2-46.4c11.3,5.4,20.3,14.3,31,20.9c1.9,2.4,3,5,3.8,7.8
			c0.5,9.7,9.9,19.7-0.1,29.3c-13.2-2.1-25-6.6-30.3-21.4c-4.4,4.4-3.2,12.6-10,15.1C81.6,99.3,79.9,97.4,79.3,94.3z"/>
		<path class="st4" d="M188.3,114.4c-1-0.8-2-1.7-3-2.5c-2.9-8.6-16.7-10.8-13.3-23c2.3-3.5,9.7,3.7,9.7-4.5
			c25,26.1,37.2,57.9,42.4,93c-13.2-3.4-7.9-17.8-14.7-25.7c-4.2-5-7-11.7-12.7-15.9C192.9,129,189.4,122.2,188.3,114.4z"/>
		<path class="st5" d="M79.3,94.3c2,1.6,4,3.1,6.1,4.7c5.6,21.2-0.3,42.3-0.8,63.4c-0.2,7.1-1.3,14.2-1.8,21.3
			c-1.8,6.6,2.3,14.4-4,20.2c-4.4,5.9-6.7,1.9-9-1.8c-3.9-30.6,3.6-60.5,6.6-90.6C76.9,105.7,78.3,100,79.3,94.3z"/>
		<path class="st6" d="M223,211.2c2-2.5,4.4-4.4,7.9-3.8c4.7,25.9,14,51.9-4.4,76.4c-3.1,4-6.4,8.2-9.5,12.2
			C223.9,267.7,231.9,240.2,223,211.2z"/>
		<path class="st7" d="M121.3,72.1C109,66.8,96.2,61.9,90.5,48c2.9-6.1,5.6-12.1,8.5-18.2c16.4,1.4,11,21.1,22.4,26.8
			c1.3,1.6,2.3,3.2,3.1,5.1C125.4,65.7,125.6,69.5,121.3,72.1z"/>
		<path class="st6" d="M146.8,321.9c-0.5-9.8,7.4-11,12.9-8.9c17.8,6.8,32.6,2.7,46.5-9c0.3-0.3,1-0.2,1.5-0.2
			c-0.2,1.7-0.4,3.4-0.6,5c-13.3,16.3-28.9,23-49.1,12.3C154.3,319.2,150.4,320.2,146.8,321.9z"/>
		<path class="st8" d="M181.8,84.3c0,2.5,0,4.9,0,7.5c-2.7-1.2-5.2-2.5-7.9-3.7c-4,0.8-7-1.1-9.8-3.6c-4.1-5-7.6-10.9-15.8-9.4
			c-1.7-0.6-3.1-1.6-4.3-2.8c-3.2-6.8,1-12.2,3.7-17.8c1.1-1.6,2.6-2.5,4.5-2.9C162.1,62.4,169.2,75.7,181.8,84.3z"/>
		<path class="st9" d="M103.8,18.2c15.9-8.9,19.3,9.2,29.1,13.6c1.9,5.3,7.6,6.7,10.6,10.9c-2.4,9.5-11.5,3.7-16.5,7.4
			c-1.8,0.4-3.3,0.2-5-0.4c-1.4-1-2.4-2.3-3.2-3.8c-1.8-6.3-3.6-12.5-8.1-17.5C108.5,24.8,105.3,22.1,103.8,18.2z"/>
		<path class="st10" d="M103.8,18.2c4.5,0.5,7.2,3.1,8.7,7.2c2.6,7.3,5.7,14.3,8.4,21.4l-0.1,0c-0.4,4.7,5.3,9.8-1,14.2
			c-14.7-5.2-10-23.5-21-31.2C97.8,24.7,100.4,21.3,103.8,18.2z"/>
		<path class="st11" d="M142.9,44.1c-3.8-3.8-9.8-5.7-10-12.4c7.8,5.2,15.9,10.2,19.4,19.7c-0.7,1-1.5,2-2.2,3.1
			c-0.8,7.5-5.7,8.4-11.8,7.2c-1.6-1-2.4-2.5-2.6-4.4C135.3,51.4,142.5,49.5,142.9,44.1z"/>
		<path class="st0" d="M100.3,310.8c6.2,4.9,12.5,9.7,18.7,14.6C109.2,325.2,103.1,320.3,100.3,310.8z"/>
		<path class="st12" d="M78.7,203.9c-0.7-6.6-2.1-13.2,0.3-19.7c10-1.2-1-14.8,9-15.8c1.1,0.1,2.9,0.5,0.3-1.3
			c-0.4-0.2-0.6-0.8-0.9-1.3c6.6-10.2,12.1-20.3,13.1-32.9c0.7-8.7,7.2-10,14.4-5.9c6.3,3.5,12,7.9,16.8,13.4
			c9,14.7,7.7,32.5,14.2,47.5c0-3.2-1.4-6.9,1-10.4c4.1-4.9,8.5-1.3,12.8-0.4c-0.3,7.1,1,14.7-1.1,21.2c-2.6,8.2,4.5,37.9-19.2,10.9
			c-2.6-2.9-5.6-2.7-6.3,2.4c-1.3,9.8-4.4,3.3-8.2,1.2c-17.9-10.1-25.1-4.8-29.5,16.1c-2.5,12,2.7,26.3-9.1,36
			C74,245.7,83.3,223.9,78.7,203.9z"/>
		<path class="st13" d="M159.7,176.9c-3.7,0.5-7.4,0.9-11.1,1.4c-12.2-5.1-9.6-17.5-6.9-24.2c10-24.6,8.4-50,10-75.3
			c0-1.9,0.8-3.6,2.1-5c5.7-0.9,8.8,2.1,10.6,7c3.1,2.4,6.1,4.9,9.3,7.3c-1.4,10.4,10.5,14.6,11.4,23.9c-5.2-4-10.2-8-17.6-13.7
			c5.9,13.4-8.5,24,0.5,35.4c3.9,9.7-5.3,17.9-2.7,27.4c-0.1,4.8-0.9,9.2-6.6,10.3C159.2,173.2,159.5,175.1,159.7,176.9z"/>
		<path class="st1" d="M159,171.4c1.4-4,2.8-7.8,4.2-11.8c4.1-5.8,6.6-2.9,8.6,1.8l0,0C177.9,178,168.1,174.2,159,171.4z"/>
		<path class="st12" d="M171.8,161.4c-2.6-1.9-5.3-3.2-8.6-1.8c-6.5-10.3,4.1-17.1,5.2-26C178,141.8,174.6,151.7,171.8,161.4z"/>
		<path class="st13" d="M188.3,114.4c6.2,5.8,6.9,13.7,8.4,21.4C190.2,130,183.4,124.5,188.3,114.4z"/>
		<path class="st14" d="M130.2,144.1c-7.2-5.5-14.2-11.1-21.3-16.5c-6.6,3.3-4.5,9.6-5.8,13.9c-2.4,8.9,5.3,23.2-13.6,21.6
			c0.5,1.9,1,3.6,1.4,5.5l0,0c-9.2,1.2,1.8,18.1-12.1,15.5C81,155.7,83,127.3,85.1,99c2.5-8.9,2.1-19,14.4-30.7
			c-6,26.8,14.1,27.8,25.8,36.9c3.2,0.8,3.8,3.4,4.1,6.1C128,122.3,138.7,133,130.2,144.1z"/>
		<path class="st15" d="M126.2,110.8c-0.3-1.8-0.5-3.7-0.7-5.5c3.5-9.8-5.8-18.1-3.4-27.7c8.3-1.7,16.5-3.3,24.6-5.8
			c1,0.8,2,1.6,3.1,2.4c1.5-0.4,2.3-0.1,2.8,0.7c0.4,0.9,0.5,1.4,0.3,1.7l0,0c1.5,6.5-2.3,12.3-2,18.9c0.3,5.8,3.6,19.7-11.4,9.9
			c-0.2-0.1-0.3,3.3-1.1,4.7C134.6,116.5,130.7,119.6,126.2,110.8z"/>
		<path class="st16" d="M146.6,71.7c-6.5,8.9-13.9,14-24.6,5.8c-0.3-1.8-0.5-3.7-0.7-5.5c0.6-2.9,1.1-5.7,1.7-8.6
			c3.8-3.9,10.5,1.3,13.7-4.5c5.5,1.4,10-0.1,13.5-4.6C153,61,143.7,65.1,146.6,71.7z"/>
		<path class="st11" d="M136.6,59c2.7,23.3-10.7-2-13.7,4.5c-1-0.8-2-1.7-3-2.5c0.6-4.7-3.2-9.7,1-14.2c1,0.8,2.1,1.6,3.1,2.4
			c9.1-3.1,13.3-0.1,12.4,9.6L136.6,59z"/>
		<path class="st17" d="M152.8,76.5c-1-0.8-2.1-1.6-3.1-2.4c10.1-9.4,12.2-0.7,14.9,6.6C161.1,78.2,157.9,74.6,152.8,76.5z"/>
		<path class="st18" d="M136.6,58.9c-2-6.1-6.1-9.2-12.4-9.6c4.2-9.5,12.3-4.4,18.9-5.1C145.3,50.9,139.5,54.2,136.6,58.9z"/>
		<path class="st18" d="M121,46.8c-8.1-5-9.9-12.6-8.4-21.4C120.8,30.3,122.6,37.9,121,46.8z"/>
		<path class="st17" d="M126.2,110.8c9.5-2.1,21-1.9,21-16.1c0-6.6,0.4-13,5.6-18.1c2.8,3.1,6.4,4.3,5.6,10.9
			c-1.7,13.2-8.1,26.2-1.9,40.4c1.6,3.6,3.2,14.3-7.3,15.5c-1.5,0.2-5.1-0.6-3.6,1.4c8,10.8-4.4,23,2.9,33.5
			c0.6,7.4,2.5,14.9-2.2,25.7c-9.1-21.3-10.9-41.2-16.2-59.9C131.9,132.6,121.8,122.6,126.2,110.8z"/>
		<path class="st14" d="M91.1,168.5c4.5-1.2,7.8-0.2,8.6,4.8c0.1,0.6-1.7,1.5-2.6,2.3C95.2,173.4,93.2,171,91.1,168.5L91.1,168.5z"
			/>
	</g>
	<g>
		<path class="st0" d="M104.8,316.7c7.7-9.3,17.6-13.3,29.6-11.5c18.6-1.2,35,2.3,46.8,18.7c1.9,2.7,7.3,5.7,11.7,0.9
			c11-2.1,19.4,1.9,25.5,11.1c8.7,22.9,12.3,45.9-0.1,68.7c-11,9.5-18.5,21.9-27.8,32.8c-11.4,13.2-23.5,14.3-34.1,1
			c-6.2-7.7-19.1-5.1-21.9-17c-0.8-3.5-5.5-0.5-7.7,1.9c-5.8,6.3-10.5,13.3-14.9,20.7c-1.6,2.4-3.6,4.3-6.5,4.9
			c-2.6-0.3-5.9-0.8-6.7-3.1c-2.1-6.5-3.1-6.8-4.6,0.1c-0.5,2.8-2.7,4.1-5.6,4.3c-11.8-3.2-8.9-10.5-5.4-18.4
			c8-18,7.9-18.1,7.5-29.5c-8.9-0.4-6.5,20.4-19.4,11.2c-13.2-9.3-12.2-22-5-34.9c10.3-27.2,23.4-52.2,52.2-64.1
			C114.3,315.2,110.1,320.6,104.8,316.7z"/>
		<path class="st1" d="M70.8,381c-0.8,1.7-1.3,3.8-2.5,5.2c-9,11,0,17.6,5.7,25.2c3.9-5,8.2-9.7,11.4-15c1.1-1.9,0.3-5,4.4-6.8
			c8.5,14.8,11.7,29.6-1.1,43.1c-6.6,7.1-6.8,11.7,0.4,17.3c0,0.9-0.1,1.8-0.1,2.7c-3,8-9.2,15.2-6.5,24.7
			c0.2,6.4-3.2,11.2-7.2,15.3c-4.7,4.9-7.2,14.7-14.5,13.8c-8.5-1.1-9.7-10.8-12-18.1c-0.3-1.8-0.4-3.7-0.1-5.5
			c2.5-7.5,4.7-15,0.9-22.9c-4.9-12.9-2.4-25.5,1.5-38.1c1.3-4,5.2-7.9,1-12.5c2.9-9.8,3.6-20.4,9.6-29.3
			C65.1,378.9,67.9,379.3,70.8,381z"/>
		<path class="st2" d="M215.6,404.9c8.6-22.7,5.7-45.8,2.8-69l0,0.1c5.6,6.3,8.5,13.7,8.6,22.1c12.7,29.7-1.6,55.6-12.5,81.5
			c-4.1,9.7-6.3,21.5-16.8,27.6c-0.6-4.8-4.2-6.2-8.2-7.1C192.8,439.3,207.8,423.8,215.6,404.9z"/>
		<path class="st3" d="M134.4,555c-11.1,11.3-22.3,22.7-33.3,34.1c-7-10.4-10.2-22.7-16-33.7c-0.4-3,0-5.8,0.8-8.7
			c4.6-8.6,1.5-21.9,15.1-25.1c10.3,8.6,18.1,18.5,15.1,33.8c6-1.6,9.2-9.2,16.3-7.9C134.9,549.5,135.4,552,134.4,555z"/>
		<path class="st4" d="M50.9,482c0.4,1.3,0.9,2.4,1.4,3.7c-2,8.8,8.8,17.8-0.4,26.6c-3.8,2-6.4-8.3-10.8-1
			C33,476,38.9,442.4,52.3,409.6c9.6,9.8-2.3,19.3-0.5,29.6c1.1,6.4,0,13.6,2.8,20.2C54.6,467,54.1,474.7,50.9,482z"/>
		<path class="st5" d="M134.4,555c-0.9-2.3-1.8-4.8-2.8-7.1c6-21.1,21.9-36.2,33.1-54c3.8-6,8.3-11.6,12.4-17.4
			c5-4.7,5.4-13.6,13.8-15.2c6.7-2.9,6.7,1.7,6.8,6.2c-12.4,28.3-34,50.1-52.1,74.5C142.3,546.4,138.2,550.6,134.4,555z"/>
		<path class="st6" d="M70.8,381c-3.1,1.1-6,1.6-8.8-0.8c9.2-24.6,14.6-51.8,42.8-63.4c4.8-1.9,9.6-3.7,14.4-5.7
			C99,332,77.8,351.6,70.8,381z"/>
		<path class="st7" d="M87,552.6c7.9,11,16.4,21.6,14.2,36.4c-5.5,3.8-11.1,7.5-16.6,11.3c-13.3-9.6,1.3-23.7-5.5-34.4
			c-0.4-2-0.3-4-0.1-6C80.1,556,81.9,552.6,87,552.6z"/>
		<path class="st6" d="M192.9,324.9c-4.6,8.7-12,5.7-15.6,1.1c-11.7-15-26.7-19.1-44.6-16.1c-0.4,0.1-1-0.4-1.4-0.6
			c1.1-1.3,2-2.7,3.1-3.9c19.7-7.2,36.6-4.9,48.5,14.6C185,323.4,188.8,324.5,192.9,324.9z"/>
		<path class="st8" d="M41.2,511.1c1.3-2.2,2.5-4.2,3.8-6.4c1.6,2.4,3.2,4.8,4.8,7.3c3.9,1.4,5.5,4.5,6.5,8.2
			c0.9,6.4,1,13.3,8.7,16.2c1.1,1.4,1.9,3,2.2,4.7c-0.7,7.6-7.1,9.9-12.2,13.4c-1.7,0.8-3.5,0.9-5.3,0.2
			C46.8,540.1,47.6,524.9,41.2,511.1z"/>
		<path class="st9" d="M74.3,607.9c-18.3-0.5-11.8-17.8-18-26.5c1.1-5.5-3.1-9.7-3.5-14.7c6.9-7,11.9,2.7,18,2
			c1.6,0.6,3,1.6,4.1,2.9c0.7,1.6,0.9,3.2,0.8,4.9c-1.6,6.3-3.4,12.6-2,19.2C73.7,599.8,75.2,603.8,74.3,607.9z"/>
		<path class="st10" d="M74.3,607.9c-3.6-2.8-4.6-6.4-3.8-10.7c1.4-7.6,2.4-15.2,3.7-22.7l0.1,0c2.7-3.9,0.4-11.2,8.1-11.6
			c9.9,12-3.4,25.3,2.1,37.5C83,605.3,78.8,607,74.3,607.9z"/>
		<path class="st11" d="M54,565.6c1.3,5.2,5.5,10,2.3,15.8c-4.1-8.5-8.4-17-6.6-26.8c1.2-0.5,2.3-0.9,3.5-1.5
			c4.6-6,9.2-4.3,13.8-0.1c0.8,1.7,0.8,3.3,0,5C64.3,563.2,57.2,561.1,54,565.6z"/>
		<path class="st0" d="M227,358.2c-2.9-7.4-5.7-14.7-8.6-22.1C226.8,341.2,229.6,348.7,227,358.2z"/>
		<path class="st12" d="M190.9,461.1c-2.8,6-5,12.4-10.4,16.7c-9.2-4.1-6.7,13.2-15.8,9c-0.9-0.7-2.3-1.9-0.9,1
			c0.2,0.4,0.1,1,0.1,1.6c-10.8,5.3-20.7,11.2-28.1,21.5c-5.1,7.1-11.3,4.8-15.4-2.3c-3.6-6.3-6.3-13-7.6-20.1
			c-0.2-17.3,10-31.8,12.1-48.1c-1.6,2.7-2.3,6.7-6.1,8.4c-6,2.2-8-3.3-11.1-6.2c3.9-6,6.7-13.1,11.9-17.7
			c6.5-5.7,15.6-34.8,22.1,0.4c0.7,3.8,3.5,5.2,6.6,1.1c6.1-7.7,5.5-0.5,7.7,3.2c10.2,17.9,19.2,17,33.6,1.2
			c8.3-9,11.1-24,26.2-26.3C216.3,427.6,197.3,441.6,190.9,461.1z"/>
		<path class="st13" d="M107.6,442.8c3.4,1.5,6.8,3,10.2,4.5c7.8,10.6-0.8,20-6.4,24.3c-21.1,16-32.9,38.6-47.2,59.5
			c-1,1.7-2.6,2.7-4.4,3.2c-5.4-2.1-6.5-6.2-5.6-11.4c-1.5-3.7-2.8-7.3-4.3-11c6.5-8.3-1.5-17.8,2.4-26.4c2.4,6,4.8,12.1,8.1,20.8
			C62.2,491.7,80,490,78,475.5c1.6-10.3,13.8-12.6,16.3-22.2c2.5-4,5.4-7.4,11-5.5C106.1,446.3,106.8,444.6,107.6,442.8z"/>
		<path class="st1" d="M105.4,448c-3.1,2.6-6.4,5.4-9.6,8c-6.5,2.8-7.1-0.9-6.5-5.9l0,0C92.5,432.6,99,440.9,105.4,448z"/>
		<path class="st12" d="M89.2,450c1.2,3,2.9,5.5,6.5,5.9c0.3,12.2-12.3,12.6-17.8,19.7C73.9,463.7,81.8,457,89.2,450z"/>
		<path class="st13" d="M50.9,482c-2.3-8.1,1.2-15.4,3.7-22.7C57.3,467.4,60.4,475.8,50.9,482z"/>
		<path class="st14" d="M116.1,486.2c3.3,8.5,6.6,16.8,9.8,25.1c7.3,0.5,8.8-5.9,12-9.1c6.6-6.4,7.3-22.6,22.7-11.7
			c0.5-1.8,1.1-3.7,1.6-5.5l0,0c8.5,3.8,7.7-16.4,18.3-7.2c-16.3,23.3-32.6,46.6-48.9,69.9c-6.7,6.4-11.5,15.2-28,19
			c18.9-19.9,2.1-31.2-3.3-44.9c-2.4-2.3-1.5-4.8-0.4-7.4C106.9,506,103.1,491.4,116.1,486.2z"/>
		<path class="st15" d="M102.6,516.8c-0.7,1.7-1.4,3.4-2.2,5.1c-8.1,6.7-4.2,18.4-11.2,25.5c-7.9-2.7-15.8-5.7-24.1-7.5
			c-0.5-1.2-0.9-2.4-1.5-3.7c-1.5-0.4-2.1-1.1-2.1-2.1c0-1,0.3-1.5,0.6-1.6l0,0c2.1-6.3,8.3-9.3,11.5-15.2c2.7-5.1,7-18.7,14.9-2.7
			c0.1,0.2,1.9-2.7,3.4-3.5C98.3,507.6,103.2,507,102.6,516.8z"/>
		<path class="st16" d="M65,539.9c10.1-4.2,19.1-4.9,24.1,7.5c-0.7,1.7-1.4,3.4-2.1,5.1c-2,2.2-3.9,4.4-5.8,6.5
			c-5.2,1.4-8.4-6.5-14-3.1c-3.9-4-8.6-5.1-13.9-3C54,545.8,64.2,547.1,65,539.9z"/>
		<path class="st11" d="M67.1,556c9.6-21.4,8.2,7.2,14,3.1c0.4,1.3,0.8,2.4,1.3,3.7c-2.9,3.8-2.1,10-8.1,11.6
			c-0.4-1.3-1-2.4-1.5-3.7C63.5,568.8,61.4,564,67.1,556L67.1,556z"/>
		<path class="st17" d="M62.1,532.6c0.4,1.3,0.9,2.4,1.5,3.7c-13.5,3-10.9-5.6-9.4-13.3C55.9,527,56.8,531.7,62.1,532.6z"/>
		<path class="st18" d="M67.1,556.1c-1.4,6.2,0.5,11.1,5.7,14.6c-8.4,6-12.8-2.5-18.8-5.3C55.5,558.5,62.2,558.6,67.1,556.1z"/>
		<path class="st18" d="M74.2,574.4c4.5,8.5,2.1,15.9-3.7,22.7C66,588.7,68.3,581.3,74.2,574.4z"/>
		<path class="st17" d="M102.6,516.8c-9.3-3.1-19-9.1-26.4,3.1c-3.4,5.7-7,11-14,12.7c-0.9-4-3.3-7.1,0.8-12.2
			c8.2-10.5,20.3-18.4,22.2-33.8c0.5-4,4.5-13.8,14.2-9.6c1.3,0.6,4,3.1,3.7,0.7c-1.4-13.4,15.5-17.5,14.6-30.3
			c3.2-6.7,5.5-14.1,15-20.9c-3.1,23-11.7,40.9-16.8,59.8C108.8,495.2,112.3,508.9,102.6,516.8z"/>
		<path class="st14" d="M162.2,485.1c-4.4-1.2-6.8-3.8-4.9-8.6c0.3-0.6,2.3-0.4,3.4-0.7C161.2,479,161.7,482,162.2,485.1
			L162.2,485.1z"/>
	</g>
	<g>
		<path class="st0" d="M205.3,407.6c-5.3-10.9-4.8-21.5,1.8-31.7c6.6-17.3,16.6-30.9,36.5-34.8c3.2-0.6,8.3-4.3,5.6-10.2
			c2.7-10.9,9.8-16.9,20.8-18.7c24.5,1.6,46.8,7.9,62.6,28.6c4.1,13.9,12.3,26,18.2,38.9c7.3,15.8,3.3,27.4-13.3,31.5
			c-9.7,2.3-12.5,15.3-24.6,12.8c-3.5-0.7-2.7,4.8-1.5,7.8c3.4,7.9,7.8,15.2,12.7,22.1c1.5,2.4,2.5,5,1.8,8c-1.4,2.2-3.2,5-5.6,4.7
			c-6.9-0.7-7.5,0-1.7,4.2c2.2,1.6,2.6,4.3,1.7,6.9c-7.8,9.3-13.3,3.7-18.9-2.7c-13.1-14.7-13.1-14.6-23.7-19.1
			c-4.1,8,15.9,14.3,2.2,22.3c-13.9,8.2-25,2-33.8-9.9c-20.5-20.7-37.8-43-36.6-74.1C207.8,398.4,210.9,404.4,205.3,407.6z"/>
		<path class="st1" d="M249.6,465.3c1.2,1.5,2.9,2.7,3.7,4.4c6.3,12.8,16.1,7.3,25.2,5.2c-2.8-5.6-5.3-11.4-8.8-16.6
			c-1.2-1.8-4.4-2.4-4.4-6.8c16.9-1.5,31.7,1.7,38.8,18.9c3.7,9,7.8,11,15.9,6.8c0.8,0.4,1.6,0.8,2.4,1.2c6,6.1,10,14.7,19.8,16.2
			c5.8,2.4,8.8,7.5,11,12.9c2.4,6.3,10.4,12.6,6.5,18.9c-4.5,7.3-13.8,4.4-21.5,3.3c-1.7-0.5-3.5-1.2-5-2.1
			c-5.8-5.4-11.8-10.5-20.4-10.4c-13.8-1-24.1-8.4-34-17.2c-3.2-2.8-5-8.1-10.9-6.2c-7.7-6.8-17.1-11.8-22.7-20.9
			C245.3,469.6,246.8,467,249.6,465.3z"/>
		<path class="st2" d="M331.5,343.4c-17.1-17.2-39.3-24.2-61.5-31.2l0.1,0c8.1-2.4,16-2.1,23.7,1.3c32.3,0.8,50,24.5,69,45.2
			c7.1,7.7,16.9,14.7,18.2,26.7c-4.7-1.4-7.3,1.2-9.8,4.5C353.3,378.4,345.4,358.2,331.5,343.4z"/>
		<path class="st3" d="M434.3,479.5c5.7,14.8,11.4,29.6,17.2,44.5c-12.4,2-24.9-0.2-37.3,0.5c-2.9-0.9-5.3-2.4-7.6-4.3
			c-6-7.8-19.3-10.4-16.6-24.2c12.1-5.8,24.3-8.8,37,0.4c1.1-6.1-4.5-12.2-0.4-18.1C429.5,476.8,432,477.4,434.3,479.5z"/>
		<path class="st4" d="M333.2,525.2c1.3,0.1,2.6,0.2,3.9,0.3c7.2,5.4,19.9-0.6,24,11.3c0.2,4.3-10.1,2.5-5.4,9.3
			c-35.4-7.2-63.5-26.5-87.8-52.4c12.9-4.7,16.6,10.1,26.6,12.8c6.3,1.7,12.4,5.6,19.5,5.7C321.1,515.7,327.9,519.3,333.2,525.2z"/>
		<path class="st5" d="M434.3,479.5c-2.5-0.1-5.1-0.2-7.6-0.4c-16.7-14.2-23.8-34.9-35.4-52.6c-3.9-5.9-7-12.4-10.6-18.5
			c-2.2-6.5-10.2-10.5-8.1-18.8c0.2-7.3,4.4-5.4,8.5-3.6c20.6,23,31.5,51.8,46.1,78.3C429.8,468.9,431.8,474.3,434.3,479.5z"/>
		<path class="st6" d="M249.6,465.3c-0.3,3.2-1.2,6.1-4.4,7.6c-18.6-18.6-41-34.7-39.9-65.3c0.3-5.2,0.6-10.3,0.9-15.5
			C216.7,419.3,225.8,446.6,249.6,465.3z"/>
		<path class="st7" d="M412.4,521.8c13.2-2.6,26.4-6,39,2.2c1.1,6.6,2.3,13.2,3.4,19.8c-14.3,8.2-21-11.1-33.6-9.2
			c-1.9-0.5-3.7-1.4-5.4-2.4C412.7,529.4,410.4,526.3,412.4,521.8z"/>
		<path class="st6" d="M249.2,330.9c6,7.8,0.2,13.2-5.5,14.6c-18.5,4.5-28.4,16.3-33.1,33.8c-0.1,0.4-0.8,0.7-1.1,1.1
			c-0.7-1.5-1.5-3-2.3-4.5c1.7-21,10.7-35.3,33.3-38C244.6,337.3,247.2,334.4,249.2,330.9z"/>
		<path class="st8" d="M355.7,546.1c-1.5-2.1-2.8-4.1-4.2-6.2c2.9-0.4,5.8-0.9,8.6-1.4c2.9-2.9,6.4-3.1,10.1-2.6
			c6.2,1.8,12.5,4.7,18.3-1.2c1.7-0.5,3.4-0.5,5.1-0.1c6.6,3.8,6.2,10.5,7.1,16.7c0,1.9-0.7,3.5-2,4.9
			C384.4,553.1,370.8,546,355.7,546.1z"/>
		<path class="st9" d="M457.4,556.2c-8.1,16.4-21.1,3.4-31.6,5.4c-4.5-3.3-10.1-1.2-14.9-2.8c-3.5-9.2,7.3-9.7,9.4-15.6
			c1.2-1.3,2.7-2.1,4.3-2.5c1.7,0,3.3,0.5,4.8,1.3c5,4.1,10.1,8.3,16.6,9.8C449.8,553.4,454,553.7,457.4,556.2z"/>
		<path class="st10" d="M457.4,556.2c-4,2.1-7.8,1.6-11.3-1c-6.3-4.4-12.7-8.5-19.2-12.9l0-0.1c-2.3-4.1-10.1-5.1-7.3-12.2
			c15-4.1,21.6,13.7,35.1,13.6C458.7,547.3,458.5,551.7,457.4,556.2z"/>
		<path class="st11" d="M410.6,557.2c5.2,0.9,11.3-0.9,15.4,4.4c-9.4,0.1-18.9,0.6-27.2-5.2c0-1.2,0.1-2.5,0.1-3.8
			c-3.5-6.6-0.2-10.1,5.6-12.6c1.9-0.1,3.4,0.6,4.6,2.1C412.7,546.8,407.8,552.4,410.6,557.2z"/>
		<path class="st0" d="M293.7,313.6c-7.9-0.5-15.8-0.9-23.7-1.3C278.3,306.8,286.2,307.3,293.7,313.6z"/>
		<path class="st12" d="M372.3,389.2c4.3,5,9.2,9.7,11,16.5c-7.5,6.7,9.2,11.6,1.6,18.1c-1,0.6-2.6,1.3,0.4,1.3c0.5,0,1,0.3,1.5,0.6
			c0.3,12.1,1.6,23.6,7.9,34.5c4.4,7.6-0.2,12.4-8.6,13c-7.2,0.6-14.3,0.2-21.5-1.5c-15.8-7-24.8-22.3-38.7-31
			c1.8,2.6,5.1,5,5.1,9.1c-0.6,6.4-6.3,5.9-10.2,7.6c-3.9-6-9.2-11.5-11.2-18.1c-2.5-8.3-25.3-28.7,9.5-19.9c3.8,1,6.2-0.9,3.8-5.6
			c-4.4-8.8,1.8-5.2,6-5.6c20.5-1.9,23.3-10.3,15.1-30.1c-4.8-11.3-17.3-20.1-13-34.8C352.4,352.2,357.2,375.3,372.3,389.2z"/>
		<path class="st13" d="M321.2,457.4c2.7-2.5,5.6-5,8.3-7.4c12.9-2.6,17.9,9,19.5,16c5.8,25.9,21.5,46,34.6,67.7
			c1,1.6,1.4,3.4,1.1,5.3c-4.1,4-8.4,3.3-12.7,0.3c-3.9-0.3-7.9-0.5-11.8-0.8c-4.8-9.4-16.9-6-23-13.1c6.5,0.4,12.9,0.7,22.2,1.2
			c-12.4-7.7-6.6-24.6-20.7-28.9c-8.7-5.7-5.8-17.7-13.3-24.1c-2.6-4-4.4-8-0.4-12.2C323.6,460.2,322.4,458.8,321.2,457.4z"/>
		<path class="st1" d="M324.9,461.6c1.1,4,2.2,8,3.3,12c-0.2,7.1-3.8,6.1-8.1,3.5l0,0C305.5,467,315.7,464.4,324.9,461.6z"/>
		<path class="st12" d="M320,477.1c3.2,0.1,6.2-0.4,8.1-3.5c11.2,4.7,6.3,16.5,10.5,24.3C326.1,496.7,323.3,486.7,320,477.1z"/>
		<path class="st13" d="M333.2,525.2c-8.4-1.2-13.5-7.4-19.1-12.8C322.7,513.3,331.5,514,333.2,525.2z"/>
		<path class="st14" d="M364,467.8c9,0.5,18.1,1,26.9,1.5c3.5-6.5-1.7-10.5-3.2-14.7c-3.1-8.6-17.6-16.1-1.2-25.5
			c-1.5-1.3-2.9-2.5-4.4-3.8l0,0c6.9-6.2-11.7-13.8,1.1-19.7c14.5,24.5,28.9,49,43.4,73.5c3,8.7,9.1,16.7,5.6,33.4
			c-10.2-25.5-27.5-14.9-42.2-15.7c-3.2,1.2-5.1-0.6-6.8-2.7C378.3,484.2,363.4,481.6,364,467.8z"/>
		<path class="st15" d="M386.3,492.7c1.2,1.4,2.5,2.7,3.7,4.2c2.7,10.1,15,11.5,18.6,20.8c-5.8,6.1-11.8,12-16.8,18.8
			c-1.3-0.1-2.6-0.1-3.9-0.2c-0.9,1.1-1.8,1.5-2.6,1c-0.9-0.4-1.3-0.9-1.3-1.3l0,0c-4.9-4.5-5.1-11.5-9.1-16.7
			c-3.6-4.7-14.1-14.1,3.7-14.7c0.2,0-1.7-2.8-1.8-4.6C376.1,492.8,377.6,488,386.3,492.7z"/>
		<path class="st16" d="M391.8,536.5c0.3-10.9,3.5-19.5,16.8-18.8c1.2,1.4,2.5,2.7,3.7,4.1c1.2,2.7,2.4,5.3,3.5,8
			c-0.9,5.3-9.4,4.9-8.7,11.4c-5.3,2-8.2,5.7-8.5,11.4C392.5,549,398,540.2,391.8,536.5z"/>
		<path class="st11" d="M407.3,541.2c-15.4-17.6,9.9-4.5,8.7-11.4c1.3,0.2,2.6,0.2,3.9,0.4c2.2,4.2,8.2,6.2,7.3,12.2
			c-1.3-0.1-2.6-0.1-3.9-0.2C417.4,549.9,412.2,549.8,407.3,541.2L407.3,541.2z"/>
		<path class="st17" d="M384,536c1.3,0.1,2.6,0.1,3.9,0.2c-3,13.4-9.6,7.6-16,3.1C376.2,539.4,380.8,540.5,384,536z"/>
		<path class="st18" d="M407.4,541.4c5.1,3.9,10.3,4.1,15.7,0.8c2,10.2-7.6,10.7-12.5,15C404.8,552.8,407.6,546.7,407.4,541.4z"/>
		<path class="st18" d="M427,542.5c9.6-0.5,15.3,4.7,19.2,12.9C436.5,555.8,430.7,550.7,427,542.5z"/>
		<path class="st17" d="M386.3,492.7c-6.6,7.1-16.2,13.5-8.2,25.3c3.8,5.5,7.1,11,5.7,18c-4.1-0.8-7.8,0-10.8-5.8
			c-6.1-11.8-8.4-26.1-21.5-34.3c-3.4-2.1-10.7-9.9-2.8-17c1.1-1,4.5-2.4,2.2-3.2c-12.8-4.3-9.5-21.3-21.5-25.9
			c-4.7-5.7-10.5-10.9-12.8-22.3c19.6,12.3,32.3,27.7,47.4,40.1C369.2,478.1,383.2,480.5,386.3,492.7z"/>
		<path class="st14" d="M382.3,425.3c-2.9,3.5-6.3,4.7-9.8,0.9c-0.4-0.5,0.5-2.3,0.8-3.4C376.2,423.6,379.2,424.5,382.3,425.3
			L382.3,425.3z"/>
	</g>
	<g>
		<path class="st0" d="M308.4,320.9c-9.9,7.1-20.3,8.5-31.6,3.7c-18.2-3.5-33.3-11-40.5-29.8c-1.1-3.1-5.7-7.5-11-3.8
			c-11.2-0.8-18.3-6.7-22-17.1c-2.7-24.4-0.4-47.4,17.3-66.6c13-6.5,23.4-16.5,35.2-24.8c14.3-10,26.4-7.9,33.3,7.6
			c4,9.1,17.2,9.7,16.9,21.9c0,3.6,5.2,1.9,8,0.1c7.1-4.7,13.6-10.3,19.6-16.3c2.2-1.9,4.5-3.3,7.5-3.1c2.4,0.9,5.5,2.3,5.7,4.7
			c0.5,6.8,1.3,7.4,4.4,1c1.2-2.5,3.7-3.3,6.5-2.8c10.5,6,6,12.4,0.7,19.1c-12.4,15.4-12.3,15.4-14.8,26.7c8.5,2.6,11.3-18,21.6-6
			c10.5,12.3,6.4,24.3-3.8,35c-16.9,23.8-35.8,44.6-66.6,48.9C298.9,320,304.2,315.9,308.4,320.9z"/>
		<path class="st1" d="M357.4,267.2c1.2-1.5,2.1-3.4,3.7-4.5c11.4-8.4,4.4-17.1,0.8-25.8c-5,3.8-10.4,7.3-14.8,11.6
			c-1.6,1.5-1.5,4.8-5.9,5.5c-4.5-16.4-3.9-31.5,11.9-41.5c8.2-5.2,9.5-9.6,4-16.8c0.2-0.9,0.5-1.7,0.7-2.5
			c4.9-7,12.7-12.3,12.5-22.2c1.4-6.2,5.9-10.1,10.8-13.1c5.9-3.5,10.6-12.5,17.5-9.7c8,3.2,6.8,12.9,7,20.5
			c-0.1,1.8-0.6,3.5-1.3,5.3c-4.3,6.6-8.3,13.4-6.6,21.9c1.4,13.7-4,25.3-11,36.4c-2.3,3.5-7,6.4-4.2,11.8
			c-5.3,8.8-8.7,18.9-16.6,26C362.4,270.8,359.7,269.6,357.4,267.2z"/>
		<path class="st2" d="M223.2,207.8c-14,19.8-17,42.9-20,66l0-0.1c-3.8-7.5-4.7-15.4-2.8-23.6c-4.9-31.9,15.5-53.4,32.6-75.8
			c6.4-8.4,11.5-19.2,23.3-22.6c-0.6,4.8,2.6,7.1,6.2,8.8C253.8,180.2,235.4,191.5,223.2,207.8z"/>
		<path class="st3" d="M339.4,82.9c13.6-8.2,27.2-16.5,40.8-24.7c4.2,11.9,4.1,24.5,7,36.6c-0.3,3-1.4,5.7-2.9,8.2
			c-6.6,7.2-7,20.8-21,20.6c-7.8-10.9-12.8-22.3-6.2-36.5c-6.3,0-11.2,6.7-17.8,3.5C337.5,88,337.7,85.5,339.4,82.9z"/>
		<path class="st4" d="M402,174.5c-0.1-1.3-0.3-2.6-0.4-3.9c4.1-8.1-4-19.4,7-25.6c4.1-0.9,4.2,9.6,10.1,3.8
			c-0.9,36.1-15.1,67.2-36.3,95.6c-6.8-11.8,7.1-18.1,8-28.4c0.5-6.5,3.3-13.2,2.3-20.3C394.6,188,397.1,180.8,402,174.5z"/>
		<path class="st5" d="M339.4,82.9c0.3,2.6,0.6,5,1,7.6c-11.1,18.9-30.3,29.5-45.6,44c-5.1,4.9-11,9.1-16.4,13.7
			c-6,3.3-8.6,11.8-17.1,11.4c-7.3,1.1-6-3.4-5-7.7c19-24.3,45.5-40,69.1-59.1C329.6,89.2,334.6,86.2,339.4,82.9z"/>
		<path class="st6" d="M357.4,267.2c3.3-0.3,6.2,0.1,8.3,2.9c-15.1,21.5-27,46.5-57.4,50.6c-5.1,0.6-10.2,1.3-15.3,1.8
			C317.9,307.6,343.2,294,357.4,267.2z"/>
		<path class="st7" d="M384.8,97.1c-4.9-12.6-10.5-25.1-4.6-38.9c6.3-2.2,12.6-4.5,18.9-6.8c10.5,12.7-7.2,22.7-3.3,34.8
			c-0.1,2-0.7,3.8-1.4,5.8C392.2,95.5,389.5,98.3,384.8,97.1z"/>
		<path class="st6" d="M225.2,291.1c6.6-7.2,13-2.5,15.4,2.9c7.6,17.5,21.1,25.2,39,26.7c0.4,0,0.8,0.6,1.2,1c-1.3,1-2.7,2.1-4,3
			c-20.9,2-36.6-4.4-43.2-26.2C232.3,294.5,229,292.3,225.2,291.1z"/>
		<path class="st8" d="M418.7,148.7c-1.7,1.8-3.6,3.5-5.3,5.2c-1-2.7-1.9-5.5-2.9-8.2c-3.3-2.3-4.2-5.8-4.3-9.5
			c0.7-6.5,2.4-13.1-4.3-17.8c-0.8-1.6-1.1-3.3-1-5.1c2.6-7.1,9.3-7.8,15.2-9.9c1.8-0.3,3.6,0,5.2,1.1
			C420.5,119.3,415.9,133.8,418.7,148.7z"/>
		<path class="st9" d="M410.8,46.7c17.6,5.1,7,20.2,10.8,30.2c-2.4,5,0.7,10.2-0.3,15.2c-8.4,5-10.8-5.6-16.9-6.5
			c-1.5-1-2.5-2.2-3.3-3.8c-0.3-1.6-0.1-3.3,0.4-5c3.1-5.7,6.4-11.3,6.8-18.1C409.5,54.7,409,50.5,410.8,46.7z"/>
		<path class="st10" d="M410.8,46.7c2.8,3.6,2.8,7.3,1,11.3c-3.3,6.9-6.2,14-9.3,21.1l-0.1,0c-3.6,3.1-3.3,10.8-10.7,9.3
			c-6.6-14.1,9.7-23.7,7.4-36.9C401.8,47,406.2,46.5,410.8,46.7z"/>
		<path class="st11" d="M419.9,92.8c0.1-5.3-2.9-11,1.8-15.9c1.8,9.3,3.9,18.5-0.3,27.7c-1.2,0.2-2.5,0.4-3.7,0.5
			c-5.9,4.6-9.9,1.9-13.4-3.3c-0.4-1.9,0-3.4,1.3-4.9C409.4,92.5,415.7,96.3,419.9,92.8z"/>
		<path class="st0" d="M200.4,250.2c0.9,7.9,1.9,15.8,2.8,23.6C196.4,266.6,195.5,258.8,200.4,250.2z"/>
		<path class="st12" d="M261.1,159.6c4.2-5.1,7.9-10.7,14.3-13.6c7.9,6.2,9.8-11.1,17.6-4.8c0.7,0.9,1.7,2.3,1.1-0.7
			c-0.1-0.4,0.1-1,0.3-1.7c11.9-2.5,23-5.7,32.6-13.8c6.7-5.6,12.1-1.9,14.4,6.1c2,7,2.8,14.1,2.3,21.3
			c-4.2,16.7-17.7,28.3-23.7,43.5c2.3-2.2,4-5.9,8.1-6.7c6.4-0.5,6.8,5.2,9.3,8.8c-5.2,4.8-9.7,11-15.9,14.2
			c-7.7,3.9-23.9,29.9-21.2-6c0.3-3.9-2-5.9-6.1-2.8c-7.9,6-5.5-0.9-6.6-5c-5.4-19.8-14.3-21.2-32.3-9.6
			c-10.3,6.6-16.8,20.5-32,18.9C228.2,185.6,250.1,177,261.1,159.6z"/>
		<path class="st13" d="M337.3,198.1c-2.9-2.3-5.9-4.6-8.8-6.9c-4.8-12.3,5.7-19.1,12.4-21.9c24.4-10.2,41.5-29.2,60.6-45.9
			c1.5-1.3,3.1-2,5.1-2c4.6,3.4,4.7,7.6,2.6,12.4c0.4,3.9,0.9,7.8,1.4,11.8c-8.4,6.4-3,17.7-8.9,24.9c-0.8-6.4-1.5-12.9-2.6-22.1
			c-5.4,13.6-23.1,10.8-24.8,25.3c-4.1,9.6-16.5,8.8-21.4,17.3c-3.5,3.3-7.2,5.8-12,2.5C339.5,195.2,338.5,196.7,337.3,198.1z"/>
		<path class="st1" d="M340.7,193.7c3.7-1.8,7.5-3.6,11.2-5.4c7.1-1.1,6.6,2.6,4.8,7.4l0,0C349.4,211.9,345.1,202.3,340.7,193.7z"/>
		<path class="st12" d="M356.9,195.8c-0.5-3.2-1.5-6-4.8-7.4c2.7-11.9,15.1-9.1,22.1-14.6C375.1,186.5,365.8,191,356.9,195.8z"/>
		<path class="st13" d="M402,174.5c0.3,8.5-5,14.6-9.4,21C392.1,186.9,391.2,178.1,402,174.5z"/>
		<path class="st14" d="M340,154.1c-1.1-9-2.1-18-3.2-26.8c-7-2.3-10,3.5-13.9,5.7c-8,4.5-12.8,20.1-25,5.6c-1,1.7-1.9,3.3-2.9,5
			l0,0c-7.3-5.7-11.6,14-19.5,2.3c21.6-18.5,43.3-37,64.8-55.5c8.1-4.5,14.9-11.9,31.9-11.4c-23.3,14.5-9.8,29.6-8.1,44.3
			c1.8,2.8,0.3,5.1-1.5,7.3C353.8,137.2,353.7,152.3,340,154.1z"/>
		<path class="st15" d="M360.7,127.8c1.2-1.5,2.3-2.9,3.5-4.4c9.5-4.4,8.7-16.8,17.2-21.9c7.1,4.6,13.9,9.5,21.4,13.3
			c0.1,1.3,0.3,2.6,0.4,3.9c1.3,0.8,1.7,1.5,1.5,2.5c-0.3,0.9-0.6,1.4-1,1.5l0,0c-3.6,5.6-10.4,7-14.9,11.9
			c-4,4.2-11.5,16.3-15.1-1.2c-0.1-0.2-2.5,2.1-4.1,2.5C362.6,137.8,357.6,137.2,360.7,127.8z"/>
		<path class="st16" d="M402.8,114.9c-10.9,1.6-19.8,0-21.4-13.3c1.1-1.5,2.3-2.9,3.4-4.4c2.4-1.6,4.8-3.2,7.3-4.8
			c5.3,0,6.5,8.4,12.8,6.5c2.8,4.9,7.1,7,12.7,6.4C415,111.8,405.5,108.1,402.8,114.9z"/>
		<path class="st11" d="M404.9,98.7c-14.7,18.3-6.1-9-12.8-6.5c-0.1-1.3-0.2-2.5-0.3-3.9c3.7-2.9,4.7-9.1,10.7-9.3
			c0.1,1.3,0.4,2.7,0.5,3.9C411.6,87.2,412.4,92.4,404.9,98.7L404.9,98.7z"/>
		<path class="st17" d="M403.8,122.6c-0.1-1.3-0.3-2.6-0.4-3.9c13.7,0.5,9.1,8.2,5.9,15.2C408.4,129.7,408.7,125,403.8,122.6z"/>
		<path class="st18" d="M404.9,98.6c2.9-5.7,2.2-10.8-1.9-15.7c9.6-3.7,11.8,5.6,16.9,9.8C416.7,99.3,410.2,97.4,404.9,98.6z"/>
		<path class="st18" d="M402.6,79.1c-2.2-9.3,2-15.9,9.3-21.1C414.1,67.4,410,74,402.6,79.1z"/>
		<path class="st17" d="M360.7,127.8c8.2,5.3,16.2,13.6,26.3,3.7c4.8-4.6,9.6-8.9,16.7-8.8c-0.1,4.2,1.5,7.6-3.8,11.6
			c-10.7,8-24.2,12.7-30.1,27.1c-1.5,3.6-7.9,12.2-16.2,5.7c-1.2-1-3.1-4-3.4-1.5c-2,13.4-19.4,13.1-21.8,25.7
			c-4.8,5.6-8.9,12.3-19.8,16.5c8.7-21.5,21.6-36.7,31.2-53.7C349.2,147.2,349.3,133,360.7,127.8z"/>
		<path class="st14" d="M295.1,143.6c3.9,2.3,5.7,5.4,2.6,9.5c-0.4,0.6-2.3-0.1-3.5-0.2C294.4,149.8,294.7,146.7,295.1,143.6
			L295.1,143.6z"/>
	</g>
	<path class="st19" d="M257.7,348c-0.6,0.9-1.3,2-1.9,2.9c-1.1,1.8-1.9,4.2-4.8,3.6c-2.1-1.2-3.3-2.9-4.1-5c1.8-6.2-3-12.6,0.6-18.8
		c2.1-3.3,3.6-6.6-0.1-9.9c-1.3-0.8-2.7-1.6-3.8-2.8c-2.2-3.5-1.3-7.1-0.5-10.7c3-5.1-5.7-5.5-4-10.1c-1.4-3.5-4.4-5.7-6.5-8.7
		c-0.5-1.1-0.7-2.1-0.8-3.2c0.1-1.2,0.7-2.2,1.6-3c1.7-0.9,3.3-1,5.2-0.3c9.4,5.9,10.2,17.1,15.5,25.6c0.6,1.1,1.1,2.2,1.5,3.3
		c1.6,4.7,2.4,9.7,3.3,14.6c0.3,1.9,0.1,3.8,0,5.7C255.5,336.5,259.3,342.4,257.7,348z"/>
	<path class="st20" d="M244.7,318.2c1.5-0.1,3-0.2,4.5-0.5c3.2,3.5,1.2,7.5,1,11.4c-2.2,2.4-5.1,4.2-6.5,7.3c-4.7,1.8-6.5,11-14,5.3
		c-6.8-3.6-14.8,2.6-21.3-2.7c-2.3-2.1-3.5-4.8-4.3-7.7c-0.3-1.9,0.5-3.5,2.4-4.3c2.5-0.6,4.6,0.2,6.2,2.2c7.3,8.2,14.9-2,20.7,0.4
		c-3.8-0.1-8.9,1.3-14.1,2.4c-4.1,0.8-6.3-0.5-5.9-4.9c8.8-6.8,20.1-4.8,29.8-8.7C243.7,318.2,244.2,318.2,244.7,318.2z"/>
	<path class="st21" d="M232.6,281l0.2,1.1l0.6,1.1c0.1,1,0,2.1,0.1,3.1c-1.6,2.3-3.6,4.3-6.4,5.2c-2.6,0.8-5.4,0.4-8.1,0.5
		c-5.3,0.4-10.2,2.4-15.3,3.7c-1.1,0.4-2.1,0.5-3.2,0.5c-1.1-0.1-2.2-0.5-3.1-1.2c-1.3-2.8-0.6-5.4,0.7-8.1c1.5-1.6,2.9-3.6,5.5-3.6
		c4.9-1.3,9.7-3.2,14.8-3.4c4.8-1.3,9.4-2.1,13.7,1.3L232.6,281z"/>
	<path class="st22" d="M244.3,305.9c0.1,4,0.3,8.1,0.4,12.2l-0.3,0.4c-11.5,4.2-23.3,7.1-35.8,6.6c-2.1-2.6-1.4-4.8,0.8-6.7
		c7.5-4.7,18.3,0.4,24.8-7.9c0-1.7,0.6-3.2,1.8-4.3C238.7,304.4,241.5,304,244.3,305.9z"/>
	<path class="st23" d="M234,288.2c4.5,1.1,6.3,4.9,8.6,8.3c-1.2,1.3-2.6,2.2-4.2,2.9c-6.2,0.6-12.4,2.3-18.7,1.2
		c-5.6-1.9-5-4.3-0.6-7C224.4,293,229.2,290.4,234,288.2z"/>
	<path class="st24" d="M238,297.4c1.6-0.3,3.1-0.5,4.6-0.8c-2.9,3.8,4.3,5.7,1.8,9.4c-3.1,0.6-6.1,1.3-9.2,1.8
		c-0.5,0.1-1.1,0.4-1.6,0.5c-2.2,0.8-4.6,1-7,0.9s-4.8-0.9-5.2-3.8c-0.3-3.2,2.3-3.2,4.6-4.1C230,299.9,234.6,300.5,238,297.4z"/>
	<path class="st25" d="M243.1,335.9c-0.8-4.9,2.7-5.4,6.1-6.1c1.1,0.5,1.3,1.4,0.5,2.4c-4.3,5.3,5.3,12.1-1.7,17.2
		c-0.4,0.8-1,1.2-1.7,1.2c-0.7,0.1-1.1,0.1-1.1-0.1c-2.8-2.4-3.4-5.5-3.4-8.9C241.7,339.5,243.5,338,243.1,335.9z"/>
	<path class="st26" d="M234,288.2c-3,5.2-8.1,6.7-13.5,7.5c-1-0.7-1.3-1.7-0.9-2.8c1.7-2.4,5.6-0.5,7.1-3.5c2.2-1,4.5-2.1,6.7-3.1
		C233.7,287,233.8,287.6,234,288.2z"/>
	<path class="st27" d="M245.7,349.8c0.8-0.1,1.6-0.3,2.3-0.5c2,0.9,3,2.6,3.5,4.6c-0.5,1-1.2,2.1-1.7,3.1l-0.6-0.2
		c-2.6,2.5-5.3,3.5-7.9,0C241.1,353.5,241.5,350.4,245.7,349.8z"/>
	<path class="st28" d="M249.7,332.1c-0.2-0.8-0.4-1.6-0.5-2.4c0-4,0.1-8,0.1-12.1C254.6,322.3,255,327.2,249.7,332.1z"/>
	<path class="st29" d="M200.9,374.3c-1.1-1.5-2.3-3-3.5-4.6c-1-0.5-1.4-1.4-1.1-2.6c0.6-0.8,1.5-1.3,2.6-1.4
		c1.9,0.5,3.7,1.8,5.7,2.3c3.7,0.9,7.1-0.4,10.6-1.3c8-1.7,16.9-1.2,21.5-10.2c0.9-1.8,3.4-1.9,5.3-0.6c2.2,2.2,4.8,1.2,7.3,0.7
		c-1.3,1.8-2.7,3.6-3.9,5.4c-5,3.6-9.9,7.1-14.8,10.8c-4.7,5.5-10.6,4.3-16.6,3c-2.6-0.2-5.2-0.3-7.9-0.6
		C204.3,375.1,202.6,374.7,200.9,374.3z"/>
	<path class="st30" d="M220,293.4c0.1,0.7,0.3,1.6,0.4,2.3c-1,0.6-2,1.2-2.8,1.8c1.1,0.2,2.2,0.5,3.3,0.7c2.1,2.9-0.5,4.7-1.7,6.7
		c-1.3,1.4-2.6,2.6-2.9,4.6c-0.1,1.4,0,2.7-0.1,4.1c0,1-0.2,1.9-0.5,2.8c-0.8,1.2-2.2,1.9-2.9,3.2c-2,0.5-3.8,1.1-4.3,3.3
		c-1.1,1.6,0.2,3.8-1.4,5.2c-0.6,0.9-1.3,1.8-2,2.9c-0.3,0.5-0.5,1-0.8,1.5c-4.6,3.8-8.2,4.3-9.6-2.8c3.7-11.3,2.5-23.5,6.1-34.9
		c0.7-0.2,1.5-0.4,2.3-0.5c3.5-0.5,7.1-0.1,10.3-1.8C215.6,291.8,218,291.5,220,293.4z"/>
	<path class="st31" d="M204.9,330.9c3.1,1.2,3.1,4,3.7,6.6c0.4,1.9,1.2,3.6,2.4,5c2.7,1.9,8.4,1.5,7.5,5.9
		c-1.1,5.7-7.6,5.4-11.9,7.5C196.9,348.7,196.4,343.3,204.9,330.9L204.9,330.9z"/>
	<path class="st32" d="M206.8,328c-0.4-2-0.3-3.8,1.4-5.2c12.6,2.8,24-3.6,36.1-4.3c-8.7,8.1-20.1,6-30.4,8.1
		c-0.7,0.9-0.5,2.5-2,2.8C210.3,329,208.6,328.5,206.8,328z"/>
	<path class="st33" d="M212.1,329.4c0.6-0.9,1.2-1.9,2-2.8c1.5,5.2,5.6,4.5,8.8,3c5.4-2.6,10.9-1.3,16.4-1.9
		c-7.5,6.2-16.8,5.5-25.5,6.4C210.8,334.4,211.8,331.3,212.1,329.4z"/>
	<path class="st34" d="M243.1,335.9c1.4,0.6,1.6,1.4,0.5,2.5c-1.6,4.5-1.2,10.9-8.4,10.4c-3.9-0.3-6.9-2.2-5-7.1
		c0.5-0.4,0.9-0.8,1.4-1.2c1.8-0.6,4.6,3.4,5.4-0.8C237.9,335.1,237.6,335.1,243.1,335.9z"/>
	<path class="st35" d="M207.2,342.7c-0.4-2-0.2-3.9,1.5-5.3c4.7,1.9,9.4,0.8,14.1-0.2c3.5-0.7,7.3-1.7,8.8,3.2l0,0
		C223.6,343.2,215.6,345.8,207.2,342.7z"/>
	<path class="st36" d="M200.7,294.7c0.7,12.3,2.5,24.8-5.5,35.8c-0.5-0.1-1-0.1-1.5-0.2c-5-1.6-1.3-7-4.3-9.6
		c-0.5-1.5-0.6-2.9,0.6-4.2c2-4.3,3.3-8.7,3.2-13.4c0.3-2.8,1-5.4,2.2-7.9c0.9-0.8,1.8-0.9,2.8-0.2
		C198.9,294.9,199.7,294.8,200.7,294.7z"/>
	<path class="st26" d="M213,294.6c-3.4,0.4-6.8,2.6-10-0.4c5-3,10.5-4.7,16.2-5.4C220.7,294.6,213.8,291.3,213,294.6z"/>
	<path class="st23" d="M213,294.6c2.1-2,4.1-3.8,6.2-5.8c2.5,0.2,5.1,0.4,7.6,0.7c-1.1,3.2-4.1,3.2-6.7,3.9
		C217.6,293.7,215.3,294.2,213,294.6z"/>
	<path class="st37" d="M198.1,295c-0.6,0.2-1.3,0.4-1.9,0.5c-1,1.2-2,1.3-3.1,0.3c0.5-2.4,1-4.8,1.5-7.2c1.5-0.1,3-0.2,4.5-0.4
		C198.8,290.5,198.4,292.8,198.1,295z"/>
	<path class="st38" d="M214.7,316.7c-0.2-0.8-0.3-1.6-0.5-2.4c5.1-8.3,13.5-5.8,21-6.5l0.1,0c0.3,1.6,0.6,3.1,0.9,4.7
		C229.3,315.9,222.4,318,214.7,316.7z"/>
	<path class="st39" d="M214.7,316.7c7.1-1.3,14.2-2.8,21.5-4.1c-5.9,8.6-15.5,5.2-23.3,7C213.3,318.5,213.9,317.6,214.7,316.7z"/>
	<path class="st40" d="M235.1,307.7c-7.3,1.1-14.5,2.8-21,6.5c-0.3-1.6-0.6-3.2-0.9-4.8c0.5-2.4,6.6-0.9,3.8-5.6
		c2.1-1.4,3.4-3.2,3.9-5.7c5.7-0.3,11.4-0.5,17.1-0.8c-2.3,7.3-10.3,4-14.7,7.8C226.6,309.4,232,303.6,235.1,307.7z"/>
	<path class="st20" d="M207.2,342.7c8.2,1,15.8-5.9,24.3-2.2c-0.6,2.7-1.2,5.6,2.8,6.2c6.6,1.1,6.2-5.7,9.3-8.4
		c0.7,3.8,1.5,7.6,2.2,11.6c-1.3,2.1-2.5,4.2-3.8,6.3c-7,8.6-16.2,13-27.1,14.5c-1.7-1.4-2.4-3.4-1.3-5.2c4.4-6.8-0.4-8-5.4-9.3
		c-0.5-0.4-0.8-0.7-1.3-1.1c2-4.1,5.8-5.8,11.1-6.3C214.2,345.1,208,348.9,207.2,342.7z"/>
	<path class="st41" d="M199.3,366.6c-0.7,0.1-1.5,0.2-2.3,0.3c-3.5-1.9-4-5.3-4.2-8.9c0.7-3.4-1.4-5.2-3.8-6.9
		c-0.9-0.7-1.4-1.6-1.6-2.7c0-2.8,0.1-5.7,2.3-8c1.2-0.4,2.3-0.2,3.4,0.4c0.9,0.8,1.7,1.8,2.3,2.8c2.3,5.1,5.5,9.8,8,14.7
		C205.2,362.2,207.3,367.1,199.3,366.6z"/>
	<path class="st42" d="M192.8,358.1c2.3,2.5,3.9,5.4,4.2,8.9c0.1,0.9,0.3,1.8,0.4,2.9c-4.8,0.3-5.4-3.3-6.4-6.6
		C191.2,361.3,190.6,359.2,192.8,358.1z"/>
	<path class="st43" d="M188.8,348.8c-3.4-3-3.7-7.2-4.6-11.2c0.6-0.2,1.2-0.5,1.7-0.9c4-0.7,4.6,1.4,3.6,4.6
		C189.9,343.8,191,346.5,188.8,348.8z"/>
	<path class="st44" d="M189.6,341.3c-0.6-2-1.2-4-3.6-4.6c-0.1-0.7-0.2-1.3-0.7-2c0-1.6,0-3.3,0.1-4.9c2.7-1.8,5.1-0.8,7.6,0.7
		c1.7,2.4,1.9,5.1,0.8,7.8c-0.4,1.1-1.1,1.9-2,2.5C191.1,340.8,190.4,341,189.6,341.3z"/>
	<path class="st45" d="M191.6,338.4c0.3-2.5,0.6-5,0.9-7.4c0.2-0.9,0.6-1.2,1.1-1.3c0.6,0.1,0.9,0.2,1,0.4l0.3,0.4
		c3.1,5.1,6.4,0.9,9.7,0.4c0.4,8.1-8.1,17,2.2,24.3l0,0c9.6,8,9.6,8.1-4.4,15.4c-2.2-0.5-2.9-2.1-3.3-3.9c4.5-1.5,3.9-3.8,1.7-7
		c-3.6-5.1-7.4-10.2-8.4-16.7C194.1,341.1,193.7,339.5,191.6,338.4z"/>
	<path class="st31" d="M202.6,370.6c1.9-5,12.3-7.6,4.4-15.4c13.1-1.6,13.1-1.6,7.8,15.6C210.8,369.4,206.7,373.7,202.6,370.6z"/>
	<path class="st46" d="M193.1,295.8c1-0.1,2-0.2,3.1-0.3c0.3,3.1-0.7,5.6-3.1,7.5C191.5,300.7,190.7,298.3,193.1,295.8z"/>
	<path class="st47" d="M217,303.8c4,5.3-0.9,4.8-3.8,5.6C212.6,306.3,214,304.5,217,303.8z"/>
	<path class="st48" d="M194.7,330.1c-0.6,0.3-1.4,0.5-2,0.9c-2.4-0.4-4.7-0.8-7.1-1.2c0.2-3.8,0.6-7.4,4.9-9
		C193.7,323,191,328,194.7,330.1z"/>
	<path class="st49" d="M191.6,338.4c2.3-0.2,5.5-0.6,5.8,2.3c0.2,2-3,1.7-4.9,2.2c-0.2-0.7-0.5-1.5-0.7-2.2
		C191.7,339.9,191.7,339.2,191.6,338.4z"/>
</g>
</svg>
